{"title":"The.New.Girlfriend[Une.Nouvelle.Amie].2014.BRRip.x264.HORiZON-Ar","uid":11739674,"size":2128879636,"categoryP":"video","categoryS":"movies","magnet":"?xt=urn:btih:78396f671f8010d1694a84b70441c9c45d61f2f7&amp;dn=The.New.Girlfriend%5BUne.Nouvelle.Amie%5D.2014.BRRip.x264.HORiZON-Ar&amp;tr=udp%3A%2F%2Ftracker.openbittorrent.com%3A80&amp;tr=udp%3A%2F%2Fopen.demonii.com%3A1337&amp;tr=udp%3A%2F%2Ftracker.coppersurfer.tk%3A6969&amp;tr=udp%3A%2F%2Fexodus.desync.com%3A6969","seeders":113,"leechers":15,"uploader":"lletaif","files":1,"time":1425735327,"description":"Media Info:\n\n\nGeneral\nUnique ID                                : 250588962105651070561131115763064940347 (0xBC85ADB7C2CBE46B9B2BE90446D4A73B)\nComplete name                            : The.New.Girlfriend[Une.Nouvelle.Amie].2014.BRRip.x264.HORiZON-ArtSubs.mkv\nFormat                                   : Matroska\nFormat version                           : Version 2\nFile size                                : 1.98 GiB\nDuration                                 : 1h 47mn\nOverall bit rate mode                    : Variable\nOverall bit rate                         : 2 631 Kbps\nEncoded date                             : UTC 2015-03-07 03:37:32\nWriting application                      : DVDFab 9.1.4.0\nWriting library                          : libebml v0.7.8 + libmatroska v0.8.1\n\nVideo\nID                                       : 1\nFormat                                   : AVC\nFormat/Info                              : Advanced Video Codec\nFormat profile                           : &lt;a class=&quot;__cf_email__&quot; href=&quot;/cdn-cgi/l/email-protection&quot; data-cfemail=&quot;551d3c323d1519617b64&quot;&gt;[email&amp;#160;protected]&lt;/a&gt;&lt;script cf-hash='f9e31' type=&quot;text/javascript&quot;&gt;\n/* &lt;![CDATA[ */!function(){try{var t=&quot;currentScript&quot;in document?document.currentScript:function(){for(var t=document.getElementsByTagName(&quot;script&quot;),e=t.length;e--;)if(t[e].getAttribute(&quot;cf-hash&quot;))return t[e]}();if(t&amp;&amp;t.previousSibling){var e,r,n,i,c=t.previousSibling,a=c.getAttribute(&quot;data-cfemail&quot;);if(a){for(e=&quot;&quot;,r=parseInt(a.substr(0,2),16),n=2;a.length-n;n+=2)i=parseInt(a.substr(n,2),16)^r,e+=String.fromCharCode(i);e=document.createTextNode(e),c.parentNode.replaceChild(e,c)}}}catch(u){}}();/* ]]&gt; */&lt;/script&gt;\nFormat settings, CABAC                   : Yes\nFormat settings, ReFrames                : 2 frames\nCodec ID                                 : V_MPEG4/ISO/AVC\nDuration                                 : 1h 47mn\nBit rate mode                            : Variable\nBit rate                                 : 2 130 Kbps\nMaximum bit rate                         : 3 303 Kbps\nWidth                                    : 1 152 pixels\nHeight                                   : 624 pixels\nDisplay aspect ratio                     : 1.85:1\nFrame rate mode                          : Constant\nFrame rate                               : 23.976 fps\nColor space                              : YUV\nChroma subsampling                       : 4:2:0\nBit depth                                : 8 bits\nScan type                                : Progressive\nBits/(Pixel*Frame)                       : 0.124\nStream size                              : 1.61 GiB (81%)\nDefault                                  : Yes\nForced                                   : No\n\nAudio\nID                                       : 2\nFormat                                   : AC-3\nFormat/Info                              : Audio Coding 3\nMode extension                           : CM (complete main)\nFormat settings, Endianness              : Big\nCodec ID                                 : A_AC3\nDuration                                 : 1h 47mn\nBit rate mode                            : Constant\nBit rate                                 : 448 Kbps\nChannel(s)                               : 6 channels\nChannel positions                        : Front: L C R, Side: L R, LFE\nSampling rate                            : 48.0 KHz\nBit depth                                : 16 bits\nCompression mode                         : Lossy\nStream size                              : 346 MiB (17%)\nLanguage                                 : French\nDefault                                  : Yes\nForced                                   : No","torrent":{"xt":"urn:btih:78396f671f8010d1694a84b70441c9c45d61f2f7","amp;dn":"The.New.Girlfriend%5BUne.Nouvelle.Amie%5D.2014.BRRip.x264.HORiZON-Ar","amp;tr":["udp%3A%2F%2Ftracker.openbittorrent.com%3A80","udp%3A%2F%2Fopen.demonii.com%3A1337","udp%3A%2F%2Ftracker.coppersurfer.tk%3A6969","udp%3A%2F%2Fexodus.desync.com%3A6969"],"infoHash":"78396f671f8010d1694a84b70441c9c45d61f2f7","infoHashBuffer":{"type":"Buffer","data":[120,57,111,103,31,128,16,209,105,74,132,183,4,65,201,196,93,97,242,247]},"announce":[],"urlList":[]}}